<svg xmlns="http://www.w3.org/2000/svg" viewBox="0 0 534.39 474.58"><defs><style>.cls-1{fill:#fff;}</style></defs><g id="Layer_2" data-name="Layer 2"><g id="Capa_1" data-name="Capa 1"><path class="cls-1" d="M47.33,324.08V216.75H93.65q39.39,0,39.39,31.53,0,31.85-43.79,31.84H78.47v44Zm31.14-53.86h7q17,0,17-22.49,0-21.07-17-21.07h-7Z"/><polygon class="cls-1" points="213.01 216.75 213.01 227.52 174.56 227.52 174.56 260 206.88 260 206.88 270.77 174.56 270.77 174.56 313.31 219.53 313.31 219.53 324.08 143.42 324.08 143.42 216.75 213.01 216.75"/><path class="cls-1" d="M299.41,246.78,285,249.46a36.33,36.33,0,0,0,.94-7.23q0-18.72-22.72-18.72-17.94,0-17.94,12.89,0,9.69,20.05,16.6Q304,266.29,304,292.32q0,15.24-10.85,24.49T264.28,326q-39.87,0-39.88-30.9a61.31,61.31,0,0,1,.4-6.21l15-3.3a49.53,49.53,0,0,0-1.72,11.87q0,20,22.89,20,18.3,0,18.31-14.38,0-10.71-21.94-18.8-31.68-11.62-31.69-37.19,0-14.47,10.58-23.31t27.8-8.85q35.38,0,35.37,31.84"/><path class="cls-1" d="M388.75,281,402,284.45q.32,4.08.32,7.08,0,15.63-11.33,25t-30.35,9.35q-47.73,0-47.72-53.7,0-25.47,13.91-41.32T363.11,215Q398,215,398,248.51l-13.37,6.13q.23-4.71.23-7.3,0-23.76-19-23.75-20.13,0-20.12,50.4,0,43.33,22.48,43.32a19.31,19.31,0,0,0,15.45-7.38q6.18-7.41,6.17-18.48a77.85,77.85,0,0,0-1-10.46"/><path class="cls-1" d="M462.89,216.75l29.89,107.33H461.47L455.1,300.8H422.79L416,324.08H403.76l31.76-107.33Zm-37,73.28H452.2l-12.67-47.57Z"/><path class="cls-1" d="M59.13,365.45,89,472.78H57.71L51.34,449.5H19l-6.84,23.28H0L31.76,365.45Zm-37,73.28H48.43L35.77,391.16Z"/><polygon class="cls-1" points="174.96 365.45 174.96 375.19 123.37 462.01 171.1 462.01 171.1 472.78 88.93 472.78 88.93 462.01 139.88 376.22 96.25 376.22 96.25 365.45 174.96 365.45"/><polygon class="cls-1" points="260.74 365.45 260.74 376.22 234.4 376.22 234.4 472.78 201.37 472.78 201.37 376.22 174.87 376.22 174.87 365.45 260.74 365.45"/><polygon class="cls-1" points="338.35 365.45 338.35 376.22 299.9 376.22 299.9 408.7 332.21 408.7 332.21 419.47 299.9 419.47 299.9 462.01 344.87 462.01 344.87 472.78 268.75 472.78 268.75 365.45 338.35 365.45"/><path class="cls-1" d="M425.7,429.69,439,433.15q.31,4.08.32,7.08,0,15.63-11.33,25t-30.35,9.35q-47.73,0-47.73-53.7,0-25.47,13.91-41.32t36.25-15.84q34.85,0,34.85,33.49l-13.37,6.13c.14-3.14.23-5.57.23-7.3q0-23.76-19-23.75-20.13,0-20.13,50.4,0,43.33,22.49,43.32a19.33,19.33,0,0,0,15.45-7.38q6.17-7.41,6.17-18.48a78.23,78.23,0,0,0-1-10.46"/><path class="cls-1" d="M499.85,365.45l29.88,107.33H498.44l-6.37-23.28H459.75l-6.84,23.28H440.72l31.77-107.33Zm-37,73.28h26.34L476.5,391.16Z"/><path class="cls-1" d="M101,150.69c-38,8.73-67.53,4.57-99.1,1.25,74-7.49,91-7.49,142.77-86.78-13.27,35.23-18.84,61.42-42.81,85.11,11.55,8.32,16.27,13.72,38.53,18.19,55.54,3.74,82.94-12.78,121.35-45.62C352.24,34.4,395,8.31,534.39,22.34L478.84,78.88,531.39,53.1V65.58l-63.25,21.2,34.14-51.14C382.21,30.24,344.11,77.21,260,148.19c-43.56,29.41-79.09,40.22-127.35,31.91-17.55-6.24-26.11-15.7-31.68-29.41M459.15,51.86c-3.85,0-6.42,2.08-6.42,5a6.14,6.14,0,0,0,6.42,5.81c3,0,6-2.91,6-5.81s-3-5-6-5M256.57,115.77C279.25,53.1,287,56,320.67,33.15c-6-21.61-28.14-24.42-41-33.15,42.27.83,47.41,8.73,85,26.92-56.4,24.94-62.72,36.58-108.09,88.85M458.3,47.29c6.42,0,12,5,12,11.22,0,6.65-5.56,11.22-12,11.22-6,0-12-4.57-12-11.22,0-6.24,6-11.22,12-11.22m-64.53,67.23c-23.55-5-71,16.22-87.22,26.19,21.82-5,60.24-11.22,90.64,0,5.56-7.48,6.42-16.21-3.42-26.19"/><path class="cls-1" d="M505.17,248.09a23,23,0,1,1,23-23.61A22.91,22.91,0,0,1,505.17,248.09Zm0-42.21A19.25,19.25,0,1,0,524.43,224,19.28,19.28,0,0,0,505.21,205.88Z"/><path class="cls-1" d="M497,210.9a37.67,37.67,0,0,1,7-.63c3.9,0,6.46.76,8.22,2.35a7,7,0,0,1,2.22,5.36,7.46,7.46,0,0,1-5.33,7.17v.12c2.14.76,3.44,2.77,4.15,5.7a49.92,49.92,0,0,0,2.14,7.75H511.6a35.69,35.69,0,0,1-1.85-6.74c-.83-3.9-2.38-5.37-5.69-5.49h-3.44v12.23H497Zm3.64,12.82h3.73c3.9,0,6.37-2.14,6.37-5.36,0-3.65-2.64-5.24-6.5-5.24a15,15,0,0,0-3.6.34Z"/></g></g></svg>